<svg height="2270" width="720" xmlns="http://www.w3.org/2000/svg">
<rect height="2270" fill="#555" width="720"></rect>
<text fill="#7f7" font-family="Courier New" font-size="12" xml:space="preserve">
<tspan x="10" y="26"></tspan>
<tspan x="10" y="42">&gt; npmdoc-cordova@0.0.2 test /home/travis/build/npmdoc/node-npmdoc-cordova</tspan>
<tspan x="10" y="58">&gt; (set -e; export PORT=$(utility2 shServerPortRandom); utility2 test test.js)</tspan>
<tspan x="10" y="74"></tspan>
<tspan x="10" y="90"></tspan>
<tspan x="10" y="106">[MODE_BUILD=npmTest] - 2017-03-25T11:42:32Z - npm-testing /home/travis/build/npmdoc/node-npmdoc-\</tspan>
<tspan x="10" y="122">cordova</tspan>
<tspan x="10" y="138"></tspan>
<tspan x="10" y="154"></tspan>
<tspan x="10" y="170">covering $ /home/travis/.nvm/versions/node/v7.7.4/bin/node /home/travis/build/npmdoc/node-npmdoc\</tspan>
<tspan x="10" y="186">-cordova/test.js</tspan>
<tspan x="10" y="202">merging file:///home/travis/build/npmdoc/node-npmdoc-cordova/tmp/build/test-report.json to test-\</tspan>
<tspan x="10" y="218">report</tspan>
<tspan x="10" y="234">&gt; server listening on http-port 63138</tspan>
<tspan x="10" y="250">created apidoc file:///home/travis/build/npmdoc/node-npmdoc-cordova/tmp/build/apidoc.html</tspan>
<tspan x="10" y="266"></tspan>
<tspan x="10" y="282"></tspan>
<tspan x="10" y="298">browserTest - created electron entry-page /home/travis/build/npmdoc/node-npmdoc-cordova/tmp/elec\</tspan>
<tspan x="10" y="314">tron.15b05466b460.e9014381e19f4.html</tspan>
<tspan x="10" y="330"></tspan>
<tspan x="10" y="346">[node test-case 1 of 6 passed] - testCase_buildLib_default</tspan>
<tspan x="10" y="362">[node test-case 2 of 6 passed] - testCase_buildReadme_default</tspan>
<tspan x="10" y="378">[node test-case 3 of 6 passed] - testCase_buildTest_default</tspan>
<tspan x="10" y="394"></tspan>
<tspan x="10" y="410">browserTest - created electron entry-page /home/travis/build/npmdoc/node-npmdoc-cordova/tmp/elec\</tspan>
<tspan x="10" y="426">tron.15b05466bcb0.9b35057031a33.html</tspan>
<tspan x="10" y="442"></tspan>
<tspan x="10" y="458">Xlib:  extension "RANDR" missing on display ":99.0".</tspan>
<tspan x="10" y="474">(node:4909) DeprecationWarning: node --debug is deprecated. Please use node --inspect instead.</tspan>
<tspan x="10" y="490">Xlib:  extension "RANDR" missing on display ":99.0".</tspan>
<tspan x="10" y="506">&gt; server listening on http-port 59795</tspan>
<tspan x="10" y="522"></tspan>
<tspan x="10" y="538">/home/travis/build/npmdoc/node-npmdoc-cordova/node_modules/utility2/lib.utility2.sh.html.js</tspan>
<tspan x="10" y="554"> #1 Line too long.</tspan>
<tspan x="10" y="570">    process.stdout.write('export npm_package_' + key.replace((/\W/g), '_') + '=' + JSON.stringif\</tspan>
<tspan x="10" y="586">y(value) + ';'); // Line 1445, Pos 116</tspan>
<tspan x="10" y="602"></tspan>
<tspan x="10" y="618">merging file:///home/travis/build/npmdoc/node-npmdoc-cordova/tmp/build/test-report.json to test-\</tspan>
<tspan x="10" y="634">report</tspan>
<tspan x="10" y="650">Xlib:  extension "RANDR" missing on display ":99.0".</tspan>
<tspan x="10" y="666">[4924:0325/114233:WARNING:audio_manager.cc(314)] Multiple instances of AudioManager detected</tspan>
<tspan x="10" y="682">[4924:0325/114233:WARNING:audio_manager.cc(275)] Multiple instances of AudioManager detected</tspan>
<tspan x="10" y="698"></tspan>
<tspan x="10" y="714">/home/travis/build/npmdoc/node-npmdoc-cordova/node_modules/utility2/lib.utility2.sh.html.js</tspan>
<tspan x="10" y="730"> #1 Line too long.</tspan>
<tspan x="10" y="746">    process.stdout.write('export npm_package_' + key.replace((/\W/g), '_') + '=' + JSON.stringif\</tspan>
<tspan x="10" y="762">y(value) + ';'); // Line 1445, Pos 116</tspan>
<tspan x="10" y="778"></tspan>
<tspan x="10" y="794">[4971:0325/114233:ERROR:sandbox_linux.cc(343)] InitializeSandbox() called with multiple threads \</tspan>
<tspan x="10" y="810">in process gpu-process. </tspan>
<tspan x="10" y="826">[4924:0325/114233:ERROR:browser_gpu_channel_host_factory.cc(131)] Failed to create channel.</tspan>
<tspan x="10" y="842">merging file:///home/travis/build/npmdoc/node-npmdoc-cordova/tmp/build/test-report.json to test-\</tspan>
<tspan x="10" y="858">report</tspan>
<tspan x="10" y="874">Xlib:  extension "RANDR" missing on display ":99.0".</tspan>
<tspan x="10" y="890">[4944:0325/114234:WARNING:audio_manager.cc(314)] Multiple instances of AudioManager detected</tspan>
<tspan x="10" y="906">[4944:0325/114234:WARNING:audio_manager.cc(275)] Multiple instances of AudioManager detected</tspan>
<tspan x="10" y="922">[5001:0325/114234:ERROR:sandbox_linux.cc(343)] InitializeSandbox() called with multiple threads \</tspan>
<tspan x="10" y="938">in process gpu-process. </tspan>
<tspan x="10" y="954">[4944:0325/114234:ERROR:browser_gpu_channel_host_factory.cc(131)] Failed to create channel.</tspan>
<tspan x="10" y="970"></tspan>
<tspan x="10" y="986">browserTest - opened url file:///home/travis/build/npmdoc/node-npmdoc-cordova/tmp/build/apidoc.h\</tspan>
<tspan x="10" y="1002">tml</tspan>
<tspan x="10" y="1018"></tspan>
<tspan x="10" y="1034"></tspan>
<tspan x="10" y="1050">browserTest - opened url http://127.0.0.1:63138?modeTest=1</tspan>
<tspan x="10" y="1066"></tspan>
<tspan x="10" y="1082">[4944:0325/114235:INFO:CONSOLE(203)] "----------|-----------|-----------|-----------|-----------\</tspan>
<tspan x="10" y="1098">|</tspan>
<tspan x="10" y="1114">File      |   % Stmts |% Branches |   % Funcs |   % Lines |</tspan>
<tspan x="10" y="1130">----------|-----------|-----------|-----------|-----------|</tspan>
<tspan x="10" y="1146">----------|-----------|-----------|-----------|-----------|</tspan>
<tspan x="10" y="1162">All files |       100 |       100 |       100 |       100 |</tspan>
<tspan x="10" y="1178">----------|-----------|-----------|-----------|-----------|</tspan>
<tspan x="10" y="1194">", source: file:///home/travis/build/npmdoc/node-npmdoc-cordova/tmp/electron.15b05466bcb0.9b3505\</tspan>
<tspan x="10" y="1210">7031a33.html (203)</tspan>
<tspan x="10" y="1226">[4944:0325/114235:INFO:CONSOLE(203)] "created coverage file:///tmp/build/coverage.html/index.htm\</tspan>
<tspan x="10" y="1242">l", source: file:///home/travis/build/npmdoc/node-npmdoc-cordova/tmp/electron.15b05466bcb0.9b350\</tspan>
<tspan x="10" y="1258">57031a33.html (203)</tspan>
<tspan x="10" y="1274">[node test-case 4 of 6 passed] - testCase_buildApp_default</tspan>
<tspan x="10" y="1290"></tspan>
<tspan x="10" y="1306">browserTest - created screen-capture file:///home/travis/build/npmdoc/node-npmdoc-cordova/tmp/bu\</tspan>
<tspan x="10" y="1322">ild/screen-capture.npmTest.browser._2Fhome_2Ftravis_2Fbuild_2Fnpmdoc_2Fnode-npmdoc-cordova_2Ftmp\</tspan>
<tspan x="10" y="1338">_2Fbuild_2Fapidoc.html.png</tspan>
<tspan x="10" y="1354"></tspan>
<tspan x="10" y="1370"></tspan>
<tspan x="10" y="1386">browserTest - exit-code 0 - file:///home/travis/build/npmdoc/node-npmdoc-cordova/tmp/build/apido\</tspan>
<tspan x="10" y="1402">c.html</tspan>
<tspan x="10" y="1418"></tspan>
<tspan x="10" y="1434">[node test-case 5 of 6 passed] - testCase_buildApidoc_default</tspan>
<tspan x="10" y="1450"></tspan>
<tspan x="10" y="1466">browserTest - created screen-capture file:///home/travis/build/npmdoc/node-npmdoc-cordova/tmp/bu\</tspan>
<tspan x="10" y="1482">ild/screen-capture.npmTest.browser..png</tspan>
<tspan x="10" y="1498"></tspan>
<tspan x="10" y="1514"></tspan>
<tspan x="10" y="1530">browserTest - exit-code 0 - http://127.0.0.1:63138?modeTest=1</tspan>
<tspan x="10" y="1546"></tspan>
<tspan x="10" y="1562"></tspan>
<tspan x="10" y="1578">browserTest - merged coverage from /home/travis/build/npmdoc/node-npmdoc-cordova/tmp/coverage.np\</tspan>
<tspan x="10" y="1594">mTest.browser.%2F.json</tspan>
<tspan x="10" y="1610"></tspan>
<tspan x="10" y="1626"></tspan>
<tspan x="10" y="1642">browserTest - merging test-report from /home/travis/build/npmdoc/node-npmdoc-cordova/tmp/test-re\</tspan>
<tspan x="10" y="1658">port.npmTest.browser.%2F.json</tspan>
<tspan x="10" y="1674"></tspan>
<tspan x="10" y="1690">[node test-case 6 of 6 passed] - testCase_webpage_default</tspan>
<tspan x="10" y="1706">----------------------------|-----------|-----------|-----------|-----------|</tspan>
<tspan x="10" y="1722">File                        |   % Stmts |% Branches |   % Funcs |   % Lines |</tspan>
<tspan x="10" y="1738">----------------------------|-----------|-----------|-----------|-----------|</tspan>
<tspan x="10" y="1754">   node-npmdoc-cordova/     |       100 |       100 |       100 |       100 |</tspan>
<tspan x="10" y="1770">      example.js            |       100 |       100 |       100 |       100 |</tspan>
<tspan x="10" y="1786">      lib.npmdoc_cordova.js |       100 |       100 |       100 |       100 |</tspan>
<tspan x="10" y="1802">      test.js               |       100 |       100 |       100 |       100 |</tspan>
<tspan x="10" y="1818">----------------------------|-----------|-----------|-----------|-----------|</tspan>
<tspan x="10" y="1834">All files                   |       100 |       100 |       100 |       100 |</tspan>
<tspan x="10" y="1850">----------------------------|-----------|-----------|-----------|-----------|</tspan>
<tspan x="10" y="1866"></tspan>
<tspan x="10" y="1882">created coverage file:///home/travis/build/npmdoc/node-npmdoc-cordova/tmp/build/coverage.html/in\</tspan>
<tspan x="10" y="1898">dex.html</tspan>
<tspan x="10" y="1914"></tspan>
<tspan x="10" y="1930">/home/travis/build/npmdoc/node-npmdoc-cordova/node_modules/utility2/lib.utility2.sh.html.js</tspan>
<tspan x="10" y="1946"> #1 Line too long.</tspan>
<tspan x="10" y="1962">    process.stdout.write('export npm_package_' + key.replace((/\W/g), '_') + '=' + JSON.stringif\</tspan>
<tspan x="10" y="1978">y(value) + ';'); // Line 1445, Pos 116</tspan>
<tspan x="10" y="1994"></tspan>
<tspan x="10" y="2010">merging file:///home/travis/build/npmdoc/node-npmdoc-cordova/tmp/build/test-report.json to test-\</tspan>
<tspan x="10" y="2026">report</tspan>
<tspan x="10" y="2042"></tspan>
<tspan x="10" y="2058">-------------------------------------------------------</tspan>
<tspan x="10" y="2074">| test-report - buildNpmdoc - node - linux v7.7.4 - 2017-03-25T11:42:22.368Z</tspan>
<tspan x="10" y="2090">|   16039 ms            0 failed        6 passed      |</tspan>
<tspan x="10" y="2106">-------------------------------------------------------</tspan>
<tspan x="10" y="2122"></tspan>
<tspan x="10" y="2138">created test-report file:///home/travis/build/npmdoc/node-npmdoc-cordova/tmp/build/test-report.h\</tspan>
<tspan x="10" y="2154">tml</tspan>
<tspan x="10" y="2170"></tspan>
<tspan x="10" y="2186"></tspan>
<tspan x="10" y="2202">npmTest - 0 failed tests</tspan>
<tspan x="10" y="2218"></tspan>
<tspan x="10" y="2234"></tspan>
<tspan x="10" y="2250">[MODE_BUILD=npmTest] - 2017-03-25T11:42:41Z - EXIT_CODE - 0</tspan>
</text>
</svg>
